<svg xmlns="http://www.w3.org/2000/svg" width="110" height="110" viewBox="0 0 110 110">
  <style>
    #logo .blue { fill: ##2a51a3; }
    #logo .green { fill: #76bc43; }
    @media (prefers-color-scheme: dark) {
      #logo .blue, #logo .green { fill: #FFFFFF; }
    }
  </style>
  <g id="logo">
    <g>
      <path class="blue" d="M47.56655,83.56475C-3.42844,87.56175,1.04755,44.23873,1.04755,44.23873c0,0,15.666,29.41501,46.519,39.32602" />
      <path class="blue" d="M47.56655,77.49004C-1.51044,67.73903,15.43455,27.29402,15.43455,27.29402c0,0,8.952,35.80902,32.132,50.19601" />
      <path class="blue" d="M62.43345,83.56475c50.995,3.99701,46.519-39.32602,46.519-39.32602,0,0-15.666,29.41501-46.519,39.32602" />
      <path class="blue" d="M62.43345,77.49004c49.077-9.75101,32.132-50.19601,32.132-50.19601,0,0-8.952,35.80902-32.132,50.19601" />
    </g>
    <g>
      <path class="green" d="M52.77535,74.45275C19.29835,58.78676,28.86335,26.17476,28.86335,26.17476c0,0,13.78801,1.63898,23.912,22.54095,0,0-8.505-6.93994-16.55901-5.91498,0,0,14.25401,6.39398,16.55901,31.65201" />
      <path class="green" d="M57.22475,74.45275c33.47701-15.66599,23.912-48.27798,23.912-48.27798,0,0-13.78801,1.63898-23.912,22.54095,0,0,8.505-6.93994,16.55901-5.91498,0,0-14.25401,6.39398-16.55901,31.65201" />
      <path class="green" d="M60.46456,35.97853c0,3.01801-2.44701,5.46503-5.465,5.46503s-5.464-2.44702-5.464-5.46503,2.446-5.46503,5.464-5.46503,5.465,2.44702,5.465,5.46503" />
    </g>
  </g>
</svg>