<svg id="Group_399" data-name="Group 399" xmlns="http://www.w3.org/2000/svg" xmlns:xlink="http://www.w3.org/1999/xlink" width="53" height="44" viewBox="0 0 53 44">
  <defs>
    <clipPath id="clip-path">
      <rect id="Rectangle_1119" data-name="Rectangle 1119" width="53" height="44" fill="#74bd43"/>
    </clipPath>
  </defs>
  <g id="Group_398" data-name="Group 398" clip-path="url(#clip-path)">
    <path id="Path_29" data-name="Path 29" d="M53.159,38V30a2.227,2.227,0,0,0-4.43,0v8a2.116,2.116,0,0,1-2.215,2H6.645A2.116,2.116,0,0,1,4.43,38V30a2.116,2.116,0,0,0-2.215-2A2.116,2.116,0,0,0,0,30v8c0,3.314,2.975,6,6.645,6H46.514c3.67,0,6.645-2.686,6.645-6M39.028,27.56l-11.075,8a2.4,2.4,0,0,1-2.747,0l-11.075-8a1.866,1.866,0,0,1-.09-2.827,2.392,2.392,0,0,1,2.837-.293l7.487,5.4V2a2.227,2.227,0,0,1,4.43,0V29.84l7.487-5.4a2.386,2.386,0,0,1,3.131.082,1.866,1.866,0,0,1-.09,2.827A2.2,2.2,0,0,1,39.028,27.56Z" fill="#74bd43"/>
  </g>
</svg>
